<svg width="95" height="94" viewBox="0 0 95 94" fill="none" xmlns="http://www.w3.org/2000/svg">
<rect width="95" height="93.8797" rx="46.9399" fill="#161629"/>
<path fill-rule="evenodd" clip-rule="evenodd" d="M25 30.625C25 27.5184 27.5184 25 30.625 25H56.7288C59.8354 25 62.3538 27.5184 62.3538 30.625V35.836H58.6038V30.625C58.6038 29.5895 57.7643 28.75 56.7288 28.75H30.625C29.5895 28.75 28.75 29.5895 28.75 30.625V56.7288C28.75 57.7643 29.5895 58.6038 30.625 58.6038H36.6761V62.3538H30.625C27.5184 62.3538 25 59.8354 25 56.7288V30.625Z" fill="white"/>
<path fill-rule="evenodd" clip-rule="evenodd" d="M66.2503 39.0259H40.1465V65.1297H66.2503V39.0259ZM40.1465 35.2759C38.0754 35.2759 36.3965 36.9549 36.3965 39.0259V65.1297C36.3965 67.2008 38.0754 68.8797 40.1465 68.8797H66.2503C68.3213 68.8797 70.0003 67.2008 70.0003 65.1297V39.0259C70.0003 36.9549 68.3213 35.2759 66.2503 35.2759H40.1465Z" fill="white"/>
</svg>
