<svg width="601" height="525" viewBox="0 0 601 525" fill="none" xmlns="http://www.w3.org/2000/svg">
<rect x="125" width="2" height="525" fill="url(#paint0_linear_549_1134)"/>
<rect x="74" width="2" height="525" fill="url(#paint1_linear_549_1134)"/>
<rect x="175" width="2" height="525" fill="url(#paint2_linear_549_1134)"/>
<rect x="225" width="2" height="525" fill="url(#paint3_linear_549_1134)"/>
<rect x="275" width="2" height="525" fill="url(#paint4_linear_549_1134)"/>
<rect x="325" width="2" height="525" fill="url(#paint5_linear_549_1134)"/>
<rect x="375" width="2" height="525" fill="url(#paint6_linear_549_1134)"/>
<rect x="425" width="2" height="525" fill="url(#paint7_linear_549_1134)"/>
<rect x="475" width="2" height="525" fill="url(#paint8_linear_549_1134)"/>
<rect x="525" width="2" height="525" fill="url(#paint9_linear_549_1134)"/>
<rect x="601" y="87" width="2" height="601" transform="rotate(90 601 87)" fill="url(#paint10_linear_549_1134)"/>
<rect x="601" y="36" width="2" height="601" transform="rotate(90 601 36)" fill="url(#paint11_linear_549_1134)"/>
<rect x="601" y="137" width="2" height="601" transform="rotate(90 601 137)" fill="url(#paint12_linear_549_1134)"/>
<rect x="601" y="187" width="2" height="601" transform="rotate(90 601 187)" fill="url(#paint13_linear_549_1134)"/>
<rect x="601" y="237" width="2" height="601" transform="rotate(90 601 237)" fill="url(#paint14_linear_549_1134)"/>
<rect x="601" y="287" width="2" height="601" transform="rotate(90 601 287)" fill="url(#paint15_linear_549_1134)"/>
<rect x="601" y="337" width="2" height="601" transform="rotate(90 601 337)" fill="url(#paint16_linear_549_1134)"/>
<rect x="601" y="387" width="2" height="601" transform="rotate(90 601 387)" fill="url(#paint17_linear_549_1134)"/>
<rect x="601" y="437" width="2" height="601" transform="rotate(90 601 437)" fill="url(#paint18_linear_549_1134)"/>
<rect x="601" y="487" width="2" height="601" transform="rotate(90 601 487)" fill="url(#paint19_linear_549_1134)"/>
<g filter="url(#filter0_b_549_1134)">
<rect x="88.0029" y="58" width="179.002" height="179.002" rx="3" fill="white" fill-opacity="0.05"/>
</g>
<rect x="108.967" y="79.7705" width="66.1179" height="12.0947" rx="3" fill="white" fill-opacity="0.05"/>
<rect x="108.967" y="107.185" width="21.5622" height="12.0947" rx="3" fill="white" fill-opacity="0.05"/>
<rect x="108.967" y="131.375" width="21.5622" height="12.0947" rx="3" fill="white" fill-opacity="0.05"/>
<rect x="108.967" y="155.564" width="21.5622" height="12.0947" rx="3" fill="white" fill-opacity="0.05"/>
<rect x="108.967" y="179.754" width="21.5622" height="12.0947" rx="3" fill="white" fill-opacity="0.05"/>
<rect x="108.967" y="203.943" width="21.5622" height="12.0947" rx="3" fill="white" fill-opacity="0.05"/>
<rect x="145.931" y="107.185" width="48.5149" height="12.0947" rx="3" fill="white" fill-opacity="0.05"/>
<rect x="146.058" y="131.375" width="54.8295" height="12.0947" rx="3" fill="white" fill-opacity="0.05"/>
<rect x="146.058" y="155.564" width="35.4779" height="12.0947" rx="3" fill="white" fill-opacity="0.05"/>
<rect x="146.058" y="179.754" width="54.8295" height="12.0947" rx="3" fill="white" fill-opacity="0.05"/>
<rect x="145.931" y="203.943" width="48.5149" height="12.0947" rx="3" fill="white" fill-opacity="0.05"/>
<rect x="209.848" y="107.185" width="36.1936" height="12.0947" rx="3" fill="white" fill-opacity="0.05"/>
<rect x="216.207" y="131.375" width="29.8337" height="12.0947" rx="3" fill="white" fill-opacity="0.05"/>
<rect x="196.855" y="155.564" width="49.1853" height="12.0947" rx="3" fill="white" fill-opacity="0.05"/>
<rect x="216.207" y="179.754" width="29.8337" height="12.0947" rx="3" fill="white" fill-opacity="0.05"/>
<rect x="209.848" y="203.943" width="36.1936" height="12.0947" rx="3" fill="white" fill-opacity="0.05"/>
<g filter="url(#filter1_b_549_1134)">
<rect x="104.936" y="292.638" width="179.002" height="151.587" rx="3" fill="white" fill-opacity="0.05"/>
</g>
<rect x="125.899" y="314.409" width="89.5011" height="12.0947" rx="3" fill="white" fill-opacity="0.05"/>
<rect x="125.899" y="341.823" width="21.5622" height="12.0947" rx="3" fill="white" fill-opacity="0.05"/>
<rect x="125.899" y="366.013" width="21.5622" height="12.0947" rx="3" fill="white" fill-opacity="0.05"/>
<rect x="125.899" y="390.202" width="21.5622" height="12.0947" rx="3" fill="white" fill-opacity="0.05"/>
<rect x="125.899" y="414.392" width="21.5622" height="12.0947" rx="3" fill="white" fill-opacity="0.05"/>
<rect x="162.863" y="341.823" width="48.5149" height="12.0947" rx="3" fill="white" fill-opacity="0.05"/>
<rect x="162.99" y="366.013" width="54.8295" height="12.0947" rx="3" fill="white" fill-opacity="0.05"/>
<rect x="162.99" y="390.202" width="35.4779" height="12.0947" rx="3" fill="white" fill-opacity="0.05"/>
<rect x="162.99" y="414.392" width="54.8295" height="12.0947" rx="3" fill="white" fill-opacity="0.05"/>
<rect x="226.78" y="341.823" width="36.1936" height="12.0947" rx="3" fill="white" fill-opacity="0.05"/>
<rect x="233.14" y="366.013" width="29.8337" height="12.0947" rx="3" fill="white" fill-opacity="0.05"/>
<rect x="213.788" y="390.202" width="49.1853" height="12.0947" rx="3" fill="white" fill-opacity="0.05"/>
<rect x="233.14" y="414.392" width="29.8337" height="12.0947" rx="3" fill="white" fill-opacity="0.05"/>
<g filter="url(#filter2_b_549_1134)">
<rect x="316.996" y="169" width="179.002" height="226.575" rx="3" fill="white" fill-opacity="0.05"/>
</g>
<rect x="337.96" y="190.771" width="45.1537" height="12.0947" rx="3" fill="white" fill-opacity="0.05"/>
<rect x="337.96" y="266.564" width="21.5622" height="12.0947" rx="3" fill="white" fill-opacity="0.05"/>
<rect x="374.924" y="266.564" width="48.5149" height="12.0947" rx="3" fill="white" fill-opacity="0.05"/>
<rect x="438.84" y="266.564" width="36.1936" height="12.0947" rx="3" fill="white" fill-opacity="0.05"/>
<rect x="337.96" y="290.754" width="21.5622" height="12.0947" rx="3" fill="white" fill-opacity="0.05"/>
<rect x="375.051" y="290.754" width="54.8295" height="12.0947" rx="3" fill="white" fill-opacity="0.05"/>
<rect x="445.2" y="290.754" width="29.8337" height="12.0947" rx="3" fill="white" fill-opacity="0.05"/>
<rect x="337.96" y="339.133" width="21.5622" height="12.0947" rx="3" fill="white" fill-opacity="0.05"/>
<rect x="375.051" y="339.133" width="54.8295" height="12.0947" rx="3" fill="white" fill-opacity="0.05"/>
<rect x="445.2" y="339.133" width="29.8337" height="12.0947" rx="3" fill="white" fill-opacity="0.05"/>
<rect x="337.96" y="314.943" width="21.5622" height="12.0947" rx="3" fill="white" fill-opacity="0.05"/>
<rect x="375.051" y="314.943" width="35.4779" height="12.0947" rx="3" fill="white" fill-opacity="0.05"/>
<rect x="425.849" y="314.943" width="49.1853" height="12.0947" rx="3" fill="white" fill-opacity="0.05"/>
<rect x="337.96" y="242.375" width="21.5622" height="12.0947" rx="3" fill="white" fill-opacity="0.05"/>
<rect x="375.051" y="242.375" width="54.8295" height="12.0947" rx="3" fill="white" fill-opacity="0.05"/>
<rect x="445.2" y="242.375" width="29.8337" height="12.0947" rx="3" fill="white" fill-opacity="0.05"/>
<rect x="337.96" y="218.185" width="21.5622" height="12.0947" rx="3" fill="white" fill-opacity="0.05"/>
<rect x="374.924" y="218.185" width="48.5149" height="12.0947" rx="3" fill="white" fill-opacity="0.05"/>
<rect x="438.84" y="218.185" width="36.1936" height="12.0947" rx="3" fill="white" fill-opacity="0.05"/>
<rect x="337.96" y="363.322" width="21.5622" height="12.0947" rx="3" fill="white" fill-opacity="0.05"/>
<rect x="374.924" y="363.322" width="48.5149" height="12.0947" rx="3" fill="white" fill-opacity="0.05"/>
<rect x="438.84" y="363.322" width="36.1936" height="12.0947" rx="3" fill="white" fill-opacity="0.05"/>
<path d="M267.005 143.001C264.505 143.001 262.505 145.001 262.505 147.501C262.505 150.001 264.505 152.001 267.005 152.001C269.505 152.001 271.505 150.001 271.505 147.501C271.505 145.001 269.505 143.001 267.005 143.001Z" fill="#6016FC"/>
<path d="M271.505 147.501H386.498C397.543 147.501 406.498 156.455 406.498 167.501V169M262.505 147.501C262.505 145.001 264.505 143.001 267.005 143.001C269.505 143.001 271.505 145.001 271.505 147.501C271.505 150.001 269.505 152.001 267.005 152.001C264.505 152.001 262.505 150.001 262.505 147.501Z" stroke="#222234" stroke-width="3" stroke-dasharray="0"/>
<path d="M283.938 363.932C281.438 363.932 279.438 365.932 279.438 368.432C279.438 370.932 281.438 372.932 283.938 372.932C286.438 372.932 288.438 370.932 288.438 368.432C288.438 365.932 286.438 363.932 283.938 363.932Z" fill="#6016FC"/>
<path d="M288.438 368.432C288.438 365.932 286.438 363.932 283.938 363.932C281.438 363.932 279.438 365.932 279.438 368.432C279.438 370.932 281.438 372.932 283.938 372.932C286.438 372.932 288.438 370.932 288.438 368.432ZM288.438 368.432V368.432C295.081 368.432 300.467 363.046 300.467 356.402V298.817C300.467 289.688 307.867 282.287 316.996 282.287V282.287" stroke="#222234" stroke-width="3" stroke-dasharray="0"/>
<defs>
<filter id="filter0_b_549_1134" x="14.0029" y="-16" width="327.002" height="327.002" filterUnits="userSpaceOnUse" color-interpolation-filters="sRGB">
<feFlood flood-opacity="0" result="BackgroundImageFix"/>
<feGaussianBlur in="BackgroundImageFix" stdDeviation="37"/>
<feComposite in2="SourceAlpha" operator="in" result="effect1_backgroundBlur_549_1134"/>
<feBlend mode="normal" in="SourceGraphic" in2="effect1_backgroundBlur_549_1134" result="shape"/>
</filter>
<filter id="filter1_b_549_1134" x="30.9355" y="218.638" width="327.002" height="299.587" filterUnits="userSpaceOnUse" color-interpolation-filters="sRGB">
<feFlood flood-opacity="0" result="BackgroundImageFix"/>
<feGaussianBlur in="BackgroundImageFix" stdDeviation="37"/>
<feComposite in2="SourceAlpha" operator="in" result="effect1_backgroundBlur_549_1134"/>
<feBlend mode="normal" in="SourceGraphic" in2="effect1_backgroundBlur_549_1134" result="shape"/>
</filter>
<filter id="filter2_b_549_1134" x="242.996" y="95" width="327.002" height="374.575" filterUnits="userSpaceOnUse" color-interpolation-filters="sRGB">
<feFlood flood-opacity="0" result="BackgroundImageFix"/>
<feGaussianBlur in="BackgroundImageFix" stdDeviation="37"/>
<feComposite in2="SourceAlpha" operator="in" result="effect1_backgroundBlur_549_1134"/>
<feBlend mode="normal" in="SourceGraphic" in2="effect1_backgroundBlur_549_1134" result="shape"/>
</filter>
<linearGradient id="paint0_linear_549_1134" x1="126" y1="0" x2="126" y2="525" gradientUnits="userSpaceOnUse">
<stop stop-color="white" stop-opacity="0"/>
<stop offset="0.479167" stop-color="white" stop-opacity="0.02"/>
<stop offset="0.994792" stop-color="white" stop-opacity="0"/>
</linearGradient>
<linearGradient id="paint1_linear_549_1134" x1="75" y1="0" x2="75" y2="525" gradientUnits="userSpaceOnUse">
<stop stop-color="white" stop-opacity="0"/>
<stop offset="0.479167" stop-color="white" stop-opacity="0.02"/>
<stop offset="0.994792" stop-color="white" stop-opacity="0"/>
</linearGradient>
<linearGradient id="paint2_linear_549_1134" x1="176" y1="0" x2="176" y2="525" gradientUnits="userSpaceOnUse">
<stop stop-color="white" stop-opacity="0"/>
<stop offset="0.479167" stop-color="white" stop-opacity="0.02"/>
<stop offset="0.994792" stop-color="white" stop-opacity="0"/>
</linearGradient>
<linearGradient id="paint3_linear_549_1134" x1="226" y1="0" x2="226" y2="525" gradientUnits="userSpaceOnUse">
<stop stop-color="white" stop-opacity="0"/>
<stop offset="0.479167" stop-color="white" stop-opacity="0.02"/>
<stop offset="0.994792" stop-color="white" stop-opacity="0"/>
</linearGradient>
<linearGradient id="paint4_linear_549_1134" x1="276" y1="0" x2="276" y2="525" gradientUnits="userSpaceOnUse">
<stop stop-color="white" stop-opacity="0"/>
<stop offset="0.479167" stop-color="white" stop-opacity="0.02"/>
<stop offset="0.994792" stop-color="white" stop-opacity="0"/>
</linearGradient>
<linearGradient id="paint5_linear_549_1134" x1="326" y1="0" x2="326" y2="525" gradientUnits="userSpaceOnUse">
<stop stop-color="white" stop-opacity="0"/>
<stop offset="0.479167" stop-color="white" stop-opacity="0.02"/>
<stop offset="0.994792" stop-color="white" stop-opacity="0"/>
</linearGradient>
<linearGradient id="paint6_linear_549_1134" x1="376" y1="0" x2="376" y2="525" gradientUnits="userSpaceOnUse">
<stop stop-color="white" stop-opacity="0"/>
<stop offset="0.479167" stop-color="white" stop-opacity="0.02"/>
<stop offset="0.994792" stop-color="white" stop-opacity="0"/>
</linearGradient>
<linearGradient id="paint7_linear_549_1134" x1="426" y1="0" x2="426" y2="525" gradientUnits="userSpaceOnUse">
<stop stop-color="white" stop-opacity="0"/>
<stop offset="0.479167" stop-color="white" stop-opacity="0.02"/>
<stop offset="0.994792" stop-color="white" stop-opacity="0"/>
</linearGradient>
<linearGradient id="paint8_linear_549_1134" x1="476" y1="0" x2="476" y2="525" gradientUnits="userSpaceOnUse">
<stop stop-color="white" stop-opacity="0"/>
<stop offset="0.479167" stop-color="white" stop-opacity="0.02"/>
<stop offset="0.994792" stop-color="white" stop-opacity="0"/>
</linearGradient>
<linearGradient id="paint9_linear_549_1134" x1="526" y1="0" x2="526" y2="525" gradientUnits="userSpaceOnUse">
<stop stop-color="white" stop-opacity="0"/>
<stop offset="0.479167" stop-color="white" stop-opacity="0.02"/>
<stop offset="0.994792" stop-color="white" stop-opacity="0"/>
</linearGradient>
<linearGradient id="paint10_linear_549_1134" x1="602" y1="87" x2="602" y2="688" gradientUnits="userSpaceOnUse">
<stop stop-color="white" stop-opacity="0"/>
<stop offset="0.479167" stop-color="white" stop-opacity="0.02"/>
<stop offset="0.994792" stop-color="white" stop-opacity="0"/>
</linearGradient>
<linearGradient id="paint11_linear_549_1134" x1="602" y1="36" x2="602" y2="637" gradientUnits="userSpaceOnUse">
<stop stop-color="white" stop-opacity="0"/>
<stop offset="0.479167" stop-color="white" stop-opacity="0.02"/>
<stop offset="0.994792" stop-color="white" stop-opacity="0"/>
</linearGradient>
<linearGradient id="paint12_linear_549_1134" x1="602" y1="137" x2="602" y2="738" gradientUnits="userSpaceOnUse">
<stop stop-color="white" stop-opacity="0"/>
<stop offset="0.479167" stop-color="white" stop-opacity="0.02"/>
<stop offset="0.994792" stop-color="white" stop-opacity="0"/>
</linearGradient>
<linearGradient id="paint13_linear_549_1134" x1="602" y1="187" x2="602" y2="788" gradientUnits="userSpaceOnUse">
<stop stop-color="white" stop-opacity="0"/>
<stop offset="0.479167" stop-color="white" stop-opacity="0.02"/>
<stop offset="0.994792" stop-color="white" stop-opacity="0"/>
</linearGradient>
<linearGradient id="paint14_linear_549_1134" x1="602" y1="237" x2="602" y2="838" gradientUnits="userSpaceOnUse">
<stop stop-color="white" stop-opacity="0"/>
<stop offset="0.479167" stop-color="white" stop-opacity="0.02"/>
<stop offset="0.994792" stop-color="white" stop-opacity="0"/>
</linearGradient>
<linearGradient id="paint15_linear_549_1134" x1="602" y1="287" x2="602" y2="888" gradientUnits="userSpaceOnUse">
<stop stop-color="white" stop-opacity="0"/>
<stop offset="0.479167" stop-color="white" stop-opacity="0.02"/>
<stop offset="0.994792" stop-color="white" stop-opacity="0"/>
</linearGradient>
<linearGradient id="paint16_linear_549_1134" x1="602" y1="337" x2="602" y2="938" gradientUnits="userSpaceOnUse">
<stop stop-color="white" stop-opacity="0"/>
<stop offset="0.479167" stop-color="white" stop-opacity="0.02"/>
<stop offset="0.994792" stop-color="white" stop-opacity="0"/>
</linearGradient>
<linearGradient id="paint17_linear_549_1134" x1="602" y1="387" x2="602" y2="988" gradientUnits="userSpaceOnUse">
<stop stop-color="white" stop-opacity="0"/>
<stop offset="0.479167" stop-color="white" stop-opacity="0.02"/>
<stop offset="0.994792" stop-color="white" stop-opacity="0"/>
</linearGradient>
<linearGradient id="paint18_linear_549_1134" x1="602" y1="437" x2="602" y2="1038" gradientUnits="userSpaceOnUse">
<stop stop-color="white" stop-opacity="0"/>
<stop offset="0.479167" stop-color="white" stop-opacity="0.02"/>
<stop offset="0.994792" stop-color="white" stop-opacity="0"/>
</linearGradient>
<linearGradient id="paint19_linear_549_1134" x1="602" y1="487" x2="602" y2="1088" gradientUnits="userSpaceOnUse">
<stop stop-color="white" stop-opacity="0"/>
<stop offset="0.479167" stop-color="white" stop-opacity="0.02"/>
<stop offset="0.994792" stop-color="white" stop-opacity="0"/>
</linearGradient>
</defs>
</svg>
