<svg width="502" height="564" viewBox="0 0 502 564" fill="none" xmlns="http://www.w3.org/2000/svg">
<g clip-path="url(#clip0_631_1361)">
<rect x="30" y="375" width="294" height="182" rx="10" fill="white" fill-opacity="0.1"/>
<circle cx="62" cy="405" r="6" fill="#FC165B"/>
<circle cx="81" cy="405" r="6" fill="#FCA016"/>
<circle cx="100" cy="405" r="6" fill="#16FCA9"/>
<path d="M69.8418 431.928L74.3778 436.992L69.8418 442.056L68.5938 440.992L70.4418 438.968C70.6604 438.728 70.8791 438.507 71.0978 438.304C71.3164 438.096 71.5484 437.912 71.7938 437.752H58.8897V436.232H71.8018C71.5351 436.061 71.3058 435.888 71.1137 435.712C70.9271 435.531 70.7031 435.299 70.4418 435.016L68.5938 432.992L69.8418 431.928ZM90.2773 440.84C90.8373 440.84 91.2826 440.741 91.6133 440.544C91.9439 440.341 92.1093 440.064 92.1093 439.712C92.1093 439.483 92.0613 439.288 91.9653 439.128C91.8693 438.968 91.6773 438.819 91.3893 438.68C91.1013 438.541 90.6639 438.397 90.0773 438.248C89.5226 438.104 89.0346 437.933 88.6133 437.736C88.1973 437.539 87.8746 437.283 87.6453 436.968C87.4159 436.653 87.3013 436.248 87.3013 435.752C87.3013 435.027 87.6026 434.443 88.2053 434C88.8133 433.552 89.6373 433.328 90.6773 433.328C91.3866 433.328 92.0053 433.421 92.5333 433.608C93.0613 433.795 93.5119 434.027 93.8853 434.304L93.1333 435.432C92.8026 435.213 92.4399 435.035 92.0453 434.896C91.6559 434.757 91.2159 434.688 90.7253 434.688C90.1546 434.688 89.7439 434.773 89.4933 434.944C89.2479 435.115 89.1253 435.341 89.1253 435.624C89.1253 435.837 89.1866 436.013 89.3093 436.152C89.4373 436.291 89.6559 436.421 89.9653 436.544C90.2746 436.667 90.7119 436.805 91.2773 436.96C91.8266 437.109 92.3039 437.285 92.7093 437.488C93.1199 437.691 93.4373 437.96 93.6613 438.296C93.8906 438.627 94.0052 439.059 94.0052 439.592C94.0052 440.2 93.8293 440.699 93.4773 441.088C93.1253 441.472 92.6666 441.757 92.1013 441.944C91.5359 442.125 90.9279 442.216 90.2773 442.216C89.4933 442.216 88.8159 442.104 88.2453 441.88C87.6746 441.651 87.1946 441.365 86.8053 441.024L87.7573 439.936C88.0879 440.203 88.4666 440.421 88.8933 440.592C89.3199 440.757 89.7813 440.84 90.2773 440.84ZM99.871 440.84C100.431 440.84 100.876 440.741 101.207 440.544C101.538 440.341 101.703 440.064 101.703 439.712C101.703 439.483 101.655 439.288 101.559 439.128C101.463 438.968 101.271 438.819 100.983 438.68C100.695 438.541 100.258 438.397 99.671 438.248C99.1163 438.104 98.6283 437.933 98.207 437.736C97.791 437.539 97.4683 437.283 97.239 436.968C97.0097 436.653 96.895 436.248 96.895 435.752C96.895 435.027 97.1963 434.443 97.799 434C98.407 433.552 99.231 433.328 100.271 433.328C100.98 433.328 101.599 433.421 102.127 433.608C102.655 433.795 103.106 434.027 103.479 434.304L102.727 435.432C102.396 435.213 102.034 435.035 101.639 434.896C101.25 434.757 100.81 434.688 100.319 434.688C99.7483 434.688 99.3377 434.773 99.087 434.944C98.8417 435.115 98.719 435.341 98.719 435.624C98.719 435.837 98.7803 436.013 98.903 436.152C99.031 436.291 99.2497 436.421 99.559 436.544C99.8683 436.667 100.306 436.805 100.871 436.96C101.42 437.109 101.898 437.285 102.303 437.488C102.714 437.691 103.031 437.96 103.255 438.296C103.484 438.627 103.599 439.059 103.599 439.592C103.599 440.2 103.423 440.699 103.071 441.088C102.719 441.472 102.26 441.757 101.695 441.944C101.13 442.125 100.522 442.216 99.871 442.216C99.087 442.216 98.4097 442.104 97.839 441.88C97.2683 441.651 96.7883 441.365 96.399 441.024L97.351 439.936C97.6817 440.203 98.0603 440.421 98.487 440.592C98.9137 440.757 99.375 440.84 99.871 440.84ZM108.185 429.984V434.584C108.526 434.168 108.923 433.856 109.377 433.648C109.835 433.435 110.31 433.328 110.801 433.328C111.595 433.328 112.187 433.549 112.577 433.992C112.966 434.435 113.161 435.051 113.161 435.84V442H111.369V436.12C111.369 435.613 111.273 435.251 111.081 435.032C110.889 434.808 110.579 434.696 110.153 434.696C109.753 434.696 109.382 434.827 109.041 435.088C108.699 435.344 108.414 435.635 108.185 435.96V442H106.393V430.176L108.185 429.984ZM125.66 442V440.72H126.9V434.824H125.66V433.552H128.268L128.596 435.512C128.911 434.803 129.3 434.264 129.764 433.896C130.234 433.523 130.836 433.336 131.572 433.336C131.823 433.336 132.047 433.357 132.244 433.4C132.447 433.437 132.647 433.488 132.844 433.552L132.54 436.664H131.26V434.944C130.663 434.965 130.148 435.205 129.716 435.664C129.284 436.117 128.943 436.757 128.692 437.584V440.72H130.396V442H125.66ZM138.558 433.328C139.795 433.328 140.739 433.731 141.39 434.536C142.041 435.341 142.366 436.416 142.366 437.76C142.366 438.656 142.217 439.437 141.918 440.104C141.625 440.771 141.193 441.291 140.622 441.664C140.057 442.032 139.366 442.216 138.55 442.216C137.318 442.216 136.374 441.819 135.718 441.024C135.062 440.224 134.734 439.141 134.734 437.776C134.734 436.901 134.881 436.131 135.174 435.464C135.473 434.792 135.907 434.269 136.478 433.896C137.049 433.517 137.742 433.328 138.558 433.328ZM138.558 434.72C137.913 434.72 137.427 434.968 137.102 435.464C136.777 435.955 136.614 436.725 136.614 437.776C136.614 438.827 136.774 439.6 137.094 440.096C137.419 440.587 137.905 440.832 138.55 440.832C139.195 440.832 139.678 440.584 139.998 440.088C140.323 439.592 140.486 438.816 140.486 437.76C140.486 436.72 140.326 435.955 140.006 435.464C139.686 434.968 139.203 434.72 138.558 434.72ZM148.152 433.328C149.389 433.328 150.333 433.731 150.984 434.536C151.634 435.341 151.96 436.416 151.96 437.76C151.96 438.656 151.81 439.437 151.512 440.104C151.218 440.771 150.786 441.291 150.216 441.664C149.65 442.032 148.96 442.216 148.144 442.216C146.912 442.216 145.968 441.819 145.312 441.024C144.656 440.224 144.328 439.141 144.328 437.776C144.328 436.901 144.474 436.131 144.768 435.464C145.066 434.792 145.501 434.269 146.072 433.896C146.642 433.517 147.336 433.328 148.152 433.328ZM148.152 434.72C147.506 434.72 147.021 434.968 146.696 435.464C146.37 435.955 146.208 436.725 146.208 437.776C146.208 438.827 146.368 439.6 146.688 440.096C147.013 440.587 147.498 440.832 148.144 440.832C148.789 440.832 149.272 440.584 149.592 440.088C149.917 439.592 150.08 438.816 150.08 437.76C150.08 436.72 149.92 435.955 149.6 435.464C149.28 434.968 148.797 434.72 148.152 434.72ZM161.418 441.552C161.108 441.749 160.738 441.909 160.306 442.032C159.874 442.155 159.423 442.216 158.954 442.216C157.972 442.216 157.226 441.963 156.714 441.456C156.207 440.944 155.954 440.272 155.954 439.44V434.856H154.074V433.552H155.954V431.664L157.746 431.448V433.552H160.594L160.394 434.856H157.746V439.424C157.746 439.877 157.858 440.216 158.082 440.44C158.311 440.659 158.684 440.768 159.202 440.768C159.511 440.768 159.794 440.731 160.05 440.656C160.311 440.581 160.551 440.485 160.77 440.368L161.418 441.552ZM167.091 430.736C168.094 430.736 168.913 430.915 169.547 431.272C170.187 431.624 170.683 432.109 171.035 432.728C171.387 433.347 171.633 434.056 171.771 434.856C171.91 435.651 171.979 436.491 171.979 437.376C171.979 438.72 171.913 439.845 171.779 440.752C171.651 441.653 171.414 442.331 171.067 442.784C170.721 443.243 170.219 443.472 169.563 443.472C169.131 443.472 168.777 443.349 168.499 443.104C168.227 442.859 168.025 442.56 167.891 442.208C167.758 441.861 167.683 441.531 167.667 441.216H167.603C167.443 441.6 167.187 441.952 166.835 442.272C166.489 442.592 166.009 442.752 165.395 442.752C164.798 442.752 164.318 442.592 163.955 442.272C163.593 441.952 163.329 441.517 163.163 440.968C162.998 440.413 162.915 439.787 162.915 439.088C162.915 437.728 163.19 436.691 163.739 435.976C164.294 435.256 165.099 434.896 166.155 434.896C166.55 434.896 166.939 434.944 167.323 435.04C167.713 435.131 168.131 435.296 168.579 435.536V440.288C168.579 441.051 168.665 441.56 168.835 441.816C169.011 442.072 169.238 442.2 169.515 442.2C169.803 442.2 170.006 442.008 170.123 441.624C170.246 441.24 170.321 440.693 170.347 439.984C170.374 439.275 170.387 438.427 170.387 437.44C170.387 436.651 170.342 435.928 170.251 435.272C170.166 434.611 170.003 434.04 169.763 433.56C169.529 433.08 169.193 432.709 168.755 432.448C168.318 432.187 167.75 432.056 167.051 432.056C166.513 432.056 165.945 432.157 165.347 432.36C164.755 432.563 164.131 432.952 163.475 433.528L162.611 432.528C163.337 431.899 164.07 431.443 164.811 431.16C165.558 430.877 166.318 430.736 167.091 430.736ZM166.179 436.112C165.566 436.112 165.147 436.352 164.923 436.832C164.699 437.312 164.587 438.064 164.587 439.088C164.587 439.851 164.665 440.448 164.819 440.88C164.974 441.307 165.257 441.52 165.667 441.52C165.993 441.52 166.246 441.445 166.427 441.296C166.609 441.147 166.745 440.971 166.835 440.768C166.926 440.56 166.995 440.379 167.043 440.224V436.32C166.777 436.181 166.489 436.112 166.179 436.112ZM180.605 440.592V442H173.925V440.592H176.621V432.8L174.189 434.296L173.421 433.04L176.813 430.96H178.397V440.592H180.605ZM186.071 430.736C186.817 430.736 187.452 430.877 187.975 431.16C188.497 431.437 188.895 431.813 189.167 432.288C189.444 432.757 189.583 433.28 189.583 433.856C189.583 434.341 189.497 434.816 189.327 435.28C189.161 435.739 188.892 436.224 188.519 436.736C188.151 437.243 187.663 437.808 187.055 438.432C186.447 439.051 185.703 439.76 184.823 440.56H189.839L189.631 442H182.767V440.64C183.759 439.685 184.575 438.875 185.215 438.208C185.86 437.541 186.364 436.965 186.727 436.48C187.095 435.995 187.353 435.557 187.503 435.168C187.652 434.773 187.727 434.373 187.727 433.968C187.727 433.413 187.569 432.976 187.255 432.656C186.94 432.336 186.503 432.176 185.943 432.176C185.447 432.176 185.031 432.267 184.695 432.448C184.364 432.629 184.036 432.923 183.711 433.328L182.543 432.44C182.975 431.891 183.471 431.469 184.031 431.176C184.591 430.883 185.271 430.736 186.071 430.736ZM195.633 430.736C196.363 430.736 196.993 430.864 197.521 431.12C198.049 431.376 198.454 431.715 198.737 432.136C199.019 432.557 199.161 433.021 199.161 433.528C199.161 434.211 198.95 434.779 198.529 435.232C198.113 435.685 197.593 435.984 196.969 436.128C197.427 436.176 197.849 436.304 198.233 436.512C198.622 436.72 198.931 437.016 199.161 437.4C199.395 437.784 199.513 438.267 199.513 438.848C199.513 439.477 199.347 440.048 199.017 440.56C198.686 441.067 198.222 441.469 197.625 441.768C197.027 442.067 196.323 442.216 195.513 442.216C194.819 442.216 194.158 442.088 193.529 441.832C192.905 441.576 192.374 441.189 191.937 440.672L193.033 439.712C193.347 440.08 193.713 440.352 194.129 440.528C194.55 440.704 194.985 440.792 195.433 440.792C196.115 440.792 196.657 440.616 197.057 440.264C197.457 439.907 197.657 439.413 197.657 438.784C197.657 438.069 197.459 437.571 197.065 437.288C196.67 437 196.158 436.856 195.529 436.856H194.577L194.785 435.536H195.457C195.974 435.536 196.425 435.395 196.809 435.112C197.198 434.824 197.393 434.384 197.393 433.792C197.393 433.259 197.209 432.848 196.841 432.56C196.478 432.267 196.027 432.12 195.489 432.12C195.025 432.12 194.614 432.205 194.257 432.376C193.899 432.547 193.547 432.792 193.201 433.112L192.249 432.096C192.734 431.637 193.259 431.296 193.825 431.072C194.39 430.848 194.993 430.736 195.633 430.736ZM204.154 440.664C204.154 440.237 204.301 439.875 204.594 439.576C204.893 439.272 205.261 439.12 205.698 439.12C206.136 439.12 206.504 439.272 206.802 439.576C207.101 439.875 207.25 440.237 207.25 440.664C207.25 441.091 207.101 441.456 206.802 441.76C206.504 442.064 206.136 442.216 205.698 442.216C205.261 442.216 204.893 442.064 204.594 441.76C204.301 441.456 204.154 441.091 204.154 440.664ZM217.796 435.112V438.064H219.108V439.456H217.796V442H216.076L216.068 439.456H211.484V438.208L214.66 430.736L216.172 431.336L213.356 438.064H216.076L216.292 435.112H217.796ZM228.054 430.96L227.822 432.304H223.582V435.376C223.896 435.211 224.2 435.099 224.494 435.04C224.792 434.976 225.091 434.944 225.39 434.944C225.976 434.944 226.499 435.083 226.958 435.36C227.416 435.637 227.776 436.037 228.038 436.56C228.304 437.083 228.438 437.715 228.438 438.456C228.438 439.197 228.272 439.851 227.942 440.416C227.616 440.981 227.155 441.424 226.558 441.744C225.966 442.059 225.272 442.216 224.478 442.216C223.758 442.216 223.118 442.088 222.558 441.832C222.003 441.571 221.515 441.216 221.094 440.768L222.166 439.76C222.779 440.448 223.526 440.792 224.406 440.792C225.078 440.792 225.606 440.589 225.99 440.184C226.379 439.773 226.574 439.195 226.574 438.448C226.574 437.637 226.403 437.072 226.062 436.752C225.72 436.427 225.291 436.264 224.774 436.264C224.496 436.264 224.235 436.296 223.99 436.36C223.75 436.419 223.483 436.509 223.19 436.632H221.87V430.96H228.054ZM235.144 430.736C235.592 430.736 236.002 430.797 236.376 430.92C236.754 431.037 237.101 431.2 237.416 431.408L236.72 432.56C236.245 432.251 235.722 432.096 235.152 432.096C234.394 432.096 233.792 432.448 233.344 433.152C232.896 433.851 232.65 434.811 232.608 436.032C232.954 435.573 233.341 435.243 233.768 435.04C234.2 434.832 234.658 434.728 235.144 434.728C235.714 434.728 236.234 434.861 236.704 435.128C237.178 435.389 237.557 435.784 237.84 436.312C238.122 436.835 238.264 437.488 238.264 438.272C238.264 439.061 238.104 439.752 237.784 440.344C237.469 440.936 237.037 441.397 236.488 441.728C235.938 442.053 235.314 442.216 234.616 442.216C233.693 442.216 232.949 441.987 232.384 441.528C231.824 441.069 231.416 440.437 231.16 439.632C230.904 438.827 230.776 437.904 230.776 436.864C230.776 435.637 230.949 434.565 231.296 433.648C231.648 432.725 232.149 432.011 232.8 431.504C233.45 430.992 234.232 430.736 235.144 430.736ZM234.768 436.072C234.33 436.072 233.928 436.189 233.56 436.424C233.197 436.659 232.885 436.971 232.624 437.36C232.645 438.555 232.808 439.437 233.112 440.008C233.421 440.573 233.925 440.856 234.624 440.856C235.237 440.856 235.693 440.627 235.992 440.168C236.296 439.704 236.448 439.099 236.448 438.352C236.448 437.504 236.296 436.912 235.992 436.576C235.688 436.24 235.28 436.072 234.768 436.072ZM242.529 440.664C242.529 440.237 242.676 439.875 242.969 439.576C243.268 439.272 243.636 439.12 244.073 439.12C244.511 439.12 244.879 439.272 245.177 439.576C245.476 439.875 245.625 440.237 245.625 440.664C245.625 441.091 245.476 441.456 245.177 441.76C244.879 442.064 244.511 442.216 244.073 442.216C243.636 442.216 243.268 442.064 242.969 441.76C242.676 441.456 242.529 441.091 242.529 440.664ZM252.763 442.192L251.075 441.672L255.307 432.368H250.251V430.96H257.123V432.248L252.763 442.192ZM266.717 433.592C266.717 434.125 266.562 434.584 266.253 434.968C265.943 435.352 265.485 435.712 264.877 436.048C265.607 436.373 266.17 436.787 266.565 437.288C266.959 437.789 267.157 438.368 267.157 439.024C267.157 439.616 267.002 440.155 266.693 440.64C266.383 441.12 265.935 441.504 265.349 441.792C264.767 442.075 264.061 442.216 263.229 442.216C262.402 442.216 261.701 442.075 261.125 441.792C260.554 441.509 260.119 441.131 259.821 440.656C259.527 440.176 259.381 439.645 259.381 439.064C259.381 438.408 259.575 437.845 259.965 437.376C260.354 436.907 260.874 436.525 261.525 436.232C260.943 435.923 260.514 435.576 260.237 435.192C259.959 434.803 259.821 434.301 259.821 433.688C259.821 433.032 259.989 432.485 260.325 432.048C260.666 431.611 261.101 431.283 261.629 431.064C262.157 430.845 262.706 430.736 263.277 430.736C263.879 430.736 264.442 430.843 264.965 431.056C265.487 431.269 265.909 431.587 266.229 432.008C266.554 432.429 266.717 432.957 266.717 433.592ZM261.557 433.696C261.557 434.24 261.741 434.637 262.109 434.888C262.477 435.133 262.997 435.371 263.669 435.6C264.127 435.323 264.461 435.04 264.669 434.752C264.877 434.464 264.981 434.107 264.981 433.68C264.981 433.184 264.834 432.787 264.541 432.488C264.247 432.189 263.826 432.04 263.277 432.04C262.733 432.04 262.309 432.184 262.005 432.472C261.706 432.76 261.557 433.168 261.557 433.696ZM265.325 439.032C265.325 438.584 265.218 438.227 265.005 437.96C264.797 437.693 264.495 437.469 264.101 437.288C263.706 437.107 263.234 436.92 262.685 436.728C262.279 436.936 261.933 437.219 261.645 437.576C261.357 437.933 261.213 438.411 261.213 439.008C261.213 439.573 261.383 440.024 261.725 440.36C262.066 440.691 262.575 440.856 263.253 440.856C263.935 440.856 264.45 440.68 264.797 440.328C265.149 439.976 265.325 439.544 265.325 439.032ZM271.311 440.664C271.311 440.237 271.457 439.875 271.751 439.576C272.049 439.272 272.417 439.12 272.855 439.12C273.292 439.12 273.66 439.272 273.959 439.576C274.257 439.875 274.407 440.237 274.407 440.664C274.407 441.091 274.257 441.456 273.959 441.76C273.66 442.064 273.292 442.216 272.855 442.216C272.417 442.216 272.049 442.064 271.751 441.76C271.457 441.456 271.311 441.091 271.311 440.664ZM282.328 430.752C283.587 430.752 284.531 431.16 285.16 431.976C285.79 432.787 286.104 433.869 286.104 435.224C286.104 436.317 285.982 437.259 285.736 438.048C285.496 438.832 285.123 439.499 284.616 440.048C284.115 440.597 283.472 441.059 282.688 441.432C281.91 441.805 280.979 442.125 279.896 442.392L279.504 441.08C280.955 440.691 282.064 440.179 282.832 439.544C283.6 438.904 284.056 438.013 284.2 436.872C283.875 437.224 283.512 437.507 283.112 437.72C282.712 437.933 282.251 438.04 281.728 438.04C281.126 438.04 280.587 437.899 280.112 437.616C279.643 437.328 279.27 436.92 278.992 436.392C278.72 435.864 278.584 435.237 278.584 434.512C278.584 433.717 278.75 433.04 279.08 432.48C279.411 431.92 279.859 431.493 280.424 431.2C280.995 430.901 281.63 430.752 282.328 430.752ZM280.408 434.512C280.408 435.291 280.568 435.851 280.888 436.192C281.214 436.533 281.643 436.704 282.176 436.704C282.598 436.704 282.974 436.605 283.304 436.408C283.635 436.211 283.95 435.936 284.248 435.584C284.243 434.352 284.094 433.467 283.8 432.928C283.512 432.384 283.019 432.112 282.32 432.112C281.702 432.112 281.227 432.312 280.896 432.712C280.571 433.112 280.408 433.712 280.408 434.512ZM292.05 430.736C293.287 430.736 294.223 431.235 294.858 432.232C295.493 433.229 295.81 434.64 295.81 436.464C295.81 438.299 295.493 439.717 294.858 440.72C294.223 441.717 293.287 442.216 292.05 442.216C290.813 442.216 289.877 441.717 289.242 440.72C288.607 439.717 288.29 438.299 288.29 436.464C288.29 434.64 288.607 433.229 289.242 432.232C289.877 431.235 290.813 430.736 292.05 430.736ZM292.05 432.104C291.415 432.104 290.927 432.443 290.586 433.12C290.245 433.792 290.074 434.907 290.074 436.464C290.074 437.6 290.143 438.485 290.282 439.12L293.402 432.752C293.247 432.523 293.058 432.357 292.834 432.256C292.61 432.155 292.349 432.104 292.05 432.104ZM294.026 436.464C294.026 435.445 293.97 434.632 293.858 434.024L290.778 440.312C291.066 440.669 291.49 440.848 292.05 440.848C292.69 440.848 293.178 440.512 293.514 439.84C293.855 439.168 294.026 438.043 294.026 436.464Z" fill="white"/>
<path d="M64.3846 490H61.6154C59.0664 490 57 492.066 57 494.615V497.385C57 499.934 59.0664 502 61.6154 502H64.3846C66.9336 502 69 499.934 69 497.385V494.615C69 492.066 66.9336 490 64.3846 490Z" fill="white" fill-opacity="0.05"/>
<path d="M128.328 490H80.6721C78.0918 490 76 492.066 76 494.615V497.385C76 499.934 78.0918 502 80.6721 502H128.328C130.908 502 133 499.934 133 497.385V494.615C133 492.066 130.908 490 128.328 490Z" fill="white" fill-opacity="0.05"/>
<path d="M181.306 490H144.694C142.102 490 140 492.066 140 494.615V497.385C140 499.934 142.102 502 144.694 502H181.306C183.898 502 186 499.934 186 497.385V494.615C186 492.066 183.898 490 181.306 490Z" fill="white" fill-opacity="0.05"/>
<path d="M115.368 514H61.6324C59.074 514 57 516.066 57 518.615V521.385C57 523.934 59.074 526 61.6324 526H115.368C117.926 526 120 523.934 120 521.385V518.615C120 516.066 117.926 514 115.368 514Z" fill="white" fill-opacity="0.05"/>
<path d="M174.357 514H131.643C129.079 514 127 516.066 127 518.615V521.385C127 523.934 129.079 526 131.643 526H174.357C176.921 526 179 523.934 179 521.385V518.615C179 516.066 176.921 514 174.357 514Z" fill="white" fill-opacity="0.05"/>
<path d="M252.395 514H191.605C189.062 514 187 516.066 187 518.615V521.385C187 523.934 189.062 526 191.605 526H252.395C254.938 526 257 523.934 257 521.385V518.615C257 516.066 254.938 514 252.395 514Z" fill="white" fill-opacity="0.05"/>
<path d="M96.4167 466H61.5833C59.052 466 57 468.066 57 470.615V473.385C57 475.934 59.052 478 61.5833 478H96.4167C98.948 478 101 475.934 101 473.385V470.615C101 468.066 98.948 466 96.4167 466Z" fill="white" fill-opacity="0.05"/>
<path d="M170.417 466H113.583C111.052 466 109 468.066 109 470.615V473.385C109 475.934 111.052 478 113.583 478H170.417C172.948 478 175 475.934 175 473.385V470.615C175 468.066 172.948 466 170.417 466Z" fill="white" fill-opacity="0.05"/>
<path d="M244.352 466H187.648C185.081 466 183 468.066 183 470.615V473.385C183 475.934 185.081 478 187.648 478H244.352C246.919 478 249 475.934 249 473.385V470.615C249 468.066 246.919 466 244.352 466Z" fill="white" fill-opacity="0.05"/>
<rect x="68.2646" y="26" width="1.86023" height="488.311" fill="url(#paint0_linear_631_1361)"/>
<rect x="20.8286" y="26" width="1.86023" height="488.311" fill="url(#paint1_linear_631_1361)"/>
<rect x="114.77" y="26" width="1.86023" height="488.311" fill="url(#paint2_linear_631_1361)"/>
<rect x="161.276" y="26" width="1.86023" height="488.311" fill="url(#paint3_linear_631_1361)"/>
<rect x="207.782" y="26" width="1.86023" height="488.311" fill="url(#paint4_linear_631_1361)"/>
<rect x="254.288" y="26" width="1.86023" height="488.311" fill="url(#paint5_linear_631_1361)"/>
<rect x="300.794" y="26" width="1.86023" height="488.311" fill="url(#paint6_linear_631_1361)"/>
<rect x="347.3" y="26" width="1.86023" height="488.311" fill="url(#paint7_linear_631_1361)"/>
<rect x="393.805" y="26" width="1.86023" height="488.311" fill="url(#paint8_linear_631_1361)"/>
<rect x="440.311" y="26" width="1.86023" height="488.311" fill="url(#paint9_linear_631_1361)"/>
<rect x="511" y="106.92" width="1.86023" height="559" transform="rotate(90 511 106.92)" fill="url(#paint10_linear_631_1361)"/>
<rect x="511" y="59.4841" width="1.86023" height="559" transform="rotate(90 511 59.4841)" fill="url(#paint11_linear_631_1361)"/>
<rect x="511" y="153.426" width="1.86023" height="559" transform="rotate(90 511 153.426)" fill="url(#paint12_linear_631_1361)"/>
<rect x="511" y="199.932" width="1.86023" height="559" transform="rotate(90 511 199.932)" fill="url(#paint13_linear_631_1361)"/>
<rect x="511" y="246.438" width="1.86023" height="559" transform="rotate(90 511 246.438)" fill="url(#paint14_linear_631_1361)"/>
<rect x="511" y="292.943" width="1.86023" height="559" transform="rotate(90 511 292.943)" fill="url(#paint15_linear_631_1361)"/>
<rect x="511" y="339.449" width="1.86023" height="559" transform="rotate(90 511 339.449)" fill="url(#paint16_linear_631_1361)"/>
<rect x="511" y="385.955" width="1.86023" height="559" transform="rotate(90 511 385.955)" fill="url(#paint17_linear_631_1361)"/>
<rect x="511" y="432.461" width="1.86023" height="559" transform="rotate(90 511 432.461)" fill="url(#paint18_linear_631_1361)"/>
<rect x="511" y="478.967" width="1.86023" height="559" transform="rotate(90 511 478.967)" fill="url(#paint19_linear_631_1361)"/>
<circle cx="225" cy="242" r="65" fill="white" fill-opacity="0.05"/>
<circle cx="225" cy="242" r="53" fill="white" fill-opacity="0.1"/>
<circle cx="225" cy="242" r="37" fill="white" fill-opacity="0.15"/>
<path d="M225 258.667C234.205 258.667 241.667 251.205 241.667 242C241.667 232.795 234.205 225.333 225 225.333C215.795 225.333 208.333 232.795 208.333 242C208.333 251.205 215.795 258.667 225 258.667Z" stroke="white" stroke-width="2" stroke-linecap="round" stroke-linejoin="round"/>
<path d="M208.333 242H241.667" stroke="white" stroke-width="2" stroke-linecap="round" stroke-linejoin="round"/>
<path d="M225 225.333C229.169 229.897 231.538 235.82 231.667 242C231.538 248.18 229.169 254.103 225 258.667C220.831 254.103 218.462 248.18 218.333 242C218.462 235.82 220.831 229.897 225 225.333V225.333Z" stroke="white" stroke-width="2" stroke-linecap="round" stroke-linejoin="round"/>
<rect x="262" y="14" width="198" height="60" rx="10" fill="white" fill-opacity="0.05"/>
<rect x="262.5" y="14.5" width="197" height="59" rx="9.5" stroke="white" stroke-opacity="0.1"/>
<rect x="262" y="94" width="198" height="60" rx="10" fill="white" fill-opacity="0.05"/>
<rect x="262.5" y="94.5" width="197" height="59" rx="9.5" stroke="white" stroke-opacity="0.1"/>
<circle cx="8" cy="8" r="8" transform="matrix(1 0 0 -1 282 52)" fill="#66FFA3"/>
<circle cx="8" cy="8" r="8" transform="matrix(1 0 0 -1 282 132)" fill="white" fill-opacity="0.4"/>
<path d="M168.5 370.5C166 370.5 164 372.5 164 375C164 377.5 166 379.5 168.5 379.5C171 379.5 173 377.5 173 375C173 372.5 171 370.5 168.5 370.5Z" fill="#6016FC"/>
<path d="M168.5 370.5V361C168.5 349.954 177.454 341 188.5 341H205C216.046 341 225 332.046 225 321V307M164 375C164 372.5 166 370.5 168.5 370.5C171 370.5 173 372.5 173 375C173 377.5 171 379.5 168.5 379.5C166 379.5 164 377.5 164 375Z" stroke="white" stroke-opacity="0.1" stroke-width="3" stroke-dasharray="0"/>
<path d="M262 119.5C259.5 119.5 257.5 121.5 257.5 124C257.5 126.5 259.5 128.5 262 128.5C264.5 128.5 266.5 126.5 266.5 124C266.5 121.5 264.5 119.5 262 119.5Z" fill="#6016FC"/>
<path d="M257.5 124C257.5 121.5 259.5 119.5 262 119.5C264.5 119.5 266.5 121.5 266.5 124C266.5 126.5 264.5 128.5 262 128.5C259.5 128.5 257.5 126.5 257.5 124ZM257.5 124H245C233.954 124 225 132.954 225 144V177" stroke="white" stroke-opacity="0.1" stroke-width="3" stroke-dasharray="0"/>
</g>
<defs>
<linearGradient id="paint0_linear_631_1361" x1="69.1948" y1="26" x2="69.1948" y2="514.311" gradientUnits="userSpaceOnUse">
<stop stop-color="white" stop-opacity="0"/>
<stop offset="0.479167" stop-color="white" stop-opacity="0.02"/>
<stop offset="0.994792" stop-color="white" stop-opacity="0"/>
</linearGradient>
<linearGradient id="paint1_linear_631_1361" x1="21.7587" y1="26" x2="21.7587" y2="514.311" gradientUnits="userSpaceOnUse">
<stop stop-color="white" stop-opacity="0"/>
<stop offset="0.479167" stop-color="white" stop-opacity="0.02"/>
<stop offset="0.994792" stop-color="white" stop-opacity="0"/>
</linearGradient>
<linearGradient id="paint2_linear_631_1361" x1="115.7" y1="26" x2="115.7" y2="514.311" gradientUnits="userSpaceOnUse">
<stop stop-color="white" stop-opacity="0"/>
<stop offset="0.479167" stop-color="white" stop-opacity="0.02"/>
<stop offset="0.994792" stop-color="white" stop-opacity="0"/>
</linearGradient>
<linearGradient id="paint3_linear_631_1361" x1="162.206" y1="26" x2="162.206" y2="514.311" gradientUnits="userSpaceOnUse">
<stop stop-color="white" stop-opacity="0"/>
<stop offset="0.479167" stop-color="white" stop-opacity="0.02"/>
<stop offset="0.994792" stop-color="white" stop-opacity="0"/>
</linearGradient>
<linearGradient id="paint4_linear_631_1361" x1="208.712" y1="26" x2="208.712" y2="514.311" gradientUnits="userSpaceOnUse">
<stop stop-color="white" stop-opacity="0"/>
<stop offset="0.479167" stop-color="white" stop-opacity="0.02"/>
<stop offset="0.994792" stop-color="white" stop-opacity="0"/>
</linearGradient>
<linearGradient id="paint5_linear_631_1361" x1="255.218" y1="26" x2="255.218" y2="514.311" gradientUnits="userSpaceOnUse">
<stop stop-color="white" stop-opacity="0"/>
<stop offset="0.479167" stop-color="white" stop-opacity="0.02"/>
<stop offset="0.994792" stop-color="white" stop-opacity="0"/>
</linearGradient>
<linearGradient id="paint6_linear_631_1361" x1="301.724" y1="26" x2="301.724" y2="514.311" gradientUnits="userSpaceOnUse">
<stop stop-color="white" stop-opacity="0"/>
<stop offset="0.479167" stop-color="white" stop-opacity="0.02"/>
<stop offset="0.994792" stop-color="white" stop-opacity="0"/>
</linearGradient>
<linearGradient id="paint7_linear_631_1361" x1="348.23" y1="26" x2="348.23" y2="514.311" gradientUnits="userSpaceOnUse">
<stop stop-color="white" stop-opacity="0"/>
<stop offset="0.479167" stop-color="white" stop-opacity="0.02"/>
<stop offset="0.994792" stop-color="white" stop-opacity="0"/>
</linearGradient>
<linearGradient id="paint8_linear_631_1361" x1="394.736" y1="26" x2="394.736" y2="514.311" gradientUnits="userSpaceOnUse">
<stop stop-color="white" stop-opacity="0"/>
<stop offset="0.479167" stop-color="white" stop-opacity="0.02"/>
<stop offset="0.994792" stop-color="white" stop-opacity="0"/>
</linearGradient>
<linearGradient id="paint9_linear_631_1361" x1="441.241" y1="26" x2="441.241" y2="514.311" gradientUnits="userSpaceOnUse">
<stop stop-color="white" stop-opacity="0"/>
<stop offset="0.479167" stop-color="white" stop-opacity="0.02"/>
<stop offset="0.994792" stop-color="white" stop-opacity="0"/>
</linearGradient>
<linearGradient id="paint10_linear_631_1361" x1="511.93" y1="106.92" x2="511.93" y2="665.92" gradientUnits="userSpaceOnUse">
<stop stop-color="white" stop-opacity="0"/>
<stop offset="0.479167" stop-color="white" stop-opacity="0.02"/>
<stop offset="0.994792" stop-color="white" stop-opacity="0"/>
</linearGradient>
<linearGradient id="paint11_linear_631_1361" x1="511.93" y1="59.4841" x2="511.93" y2="618.484" gradientUnits="userSpaceOnUse">
<stop stop-color="white" stop-opacity="0"/>
<stop offset="0.479167" stop-color="white" stop-opacity="0.02"/>
<stop offset="0.994792" stop-color="white" stop-opacity="0"/>
</linearGradient>
<linearGradient id="paint12_linear_631_1361" x1="511.93" y1="153.426" x2="511.93" y2="712.426" gradientUnits="userSpaceOnUse">
<stop stop-color="white" stop-opacity="0"/>
<stop offset="0.479167" stop-color="white" stop-opacity="0.02"/>
<stop offset="0.994792" stop-color="white" stop-opacity="0"/>
</linearGradient>
<linearGradient id="paint13_linear_631_1361" x1="511.93" y1="199.932" x2="511.93" y2="758.932" gradientUnits="userSpaceOnUse">
<stop stop-color="white" stop-opacity="0"/>
<stop offset="0.479167" stop-color="white" stop-opacity="0.02"/>
<stop offset="0.994792" stop-color="white" stop-opacity="0"/>
</linearGradient>
<linearGradient id="paint14_linear_631_1361" x1="511.93" y1="246.438" x2="511.93" y2="805.438" gradientUnits="userSpaceOnUse">
<stop stop-color="white" stop-opacity="0"/>
<stop offset="0.479167" stop-color="white" stop-opacity="0.02"/>
<stop offset="0.994792" stop-color="white" stop-opacity="0"/>
</linearGradient>
<linearGradient id="paint15_linear_631_1361" x1="511.93" y1="292.943" x2="511.93" y2="851.943" gradientUnits="userSpaceOnUse">
<stop stop-color="white" stop-opacity="0"/>
<stop offset="0.479167" stop-color="white" stop-opacity="0.02"/>
<stop offset="0.994792" stop-color="white" stop-opacity="0"/>
</linearGradient>
<linearGradient id="paint16_linear_631_1361" x1="511.93" y1="339.449" x2="511.93" y2="898.449" gradientUnits="userSpaceOnUse">
<stop stop-color="white" stop-opacity="0"/>
<stop offset="0.479167" stop-color="white" stop-opacity="0.02"/>
<stop offset="0.994792" stop-color="white" stop-opacity="0"/>
</linearGradient>
<linearGradient id="paint17_linear_631_1361" x1="511.93" y1="385.955" x2="511.93" y2="944.955" gradientUnits="userSpaceOnUse">
<stop stop-color="white" stop-opacity="0"/>
<stop offset="0.479167" stop-color="white" stop-opacity="0.02"/>
<stop offset="0.994792" stop-color="white" stop-opacity="0"/>
</linearGradient>
<linearGradient id="paint18_linear_631_1361" x1="511.93" y1="432.461" x2="511.93" y2="991.461" gradientUnits="userSpaceOnUse">
<stop stop-color="white" stop-opacity="0"/>
<stop offset="0.479167" stop-color="white" stop-opacity="0.02"/>
<stop offset="0.994792" stop-color="white" stop-opacity="0"/>
</linearGradient>
<linearGradient id="paint19_linear_631_1361" x1="511.93" y1="478.967" x2="511.93" y2="1037.97" gradientUnits="userSpaceOnUse">
<stop stop-color="white" stop-opacity="0"/>
<stop offset="0.479167" stop-color="white" stop-opacity="0.02"/>
<stop offset="0.994792" stop-color="white" stop-opacity="0"/>
</linearGradient>
<clipPath id="clip0_631_1361">
<rect width="502" height="564" fill="white"/>
</clipPath>
</defs>
</svg>
