<svg width="20" height="20" viewBox="0 0 20 20" fill="none" xmlns="http://www.w3.org/2000/svg">
<g clip-path="url(#clip0_38_1166)">
<path d="M18.3332 9.2333V9.99997C18.3321 11.797 17.7503 13.5455 16.6743 14.9848C15.5983 16.4241 14.0859 17.477 12.3626 17.9866C10.6394 18.4961 8.79755 18.4349 7.1119 17.8121C5.42624 17.1894 3.98705 16.0384 3.00897 14.5309C2.03089 13.0233 1.56633 11.24 1.68457 9.4469C1.80281 7.65377 2.49751 5.94691 3.66507 4.58086C4.83263 3.21482 6.41049 2.26279 8.16333 1.86676C9.91617 1.47073 11.7501 1.65192 13.3915 2.3833" stroke="white" stroke-width="2" stroke-linecap="round" stroke-linejoin="round"/>
<path d="M18.3333 3.33325L10 11.6749L7.5 9.17492" stroke="white" stroke-width="2" stroke-linecap="round" stroke-linejoin="round"/>
</g>
<defs>
<clipPath id="clip0_38_1166">
<rect width="20" height="20" fill="white"/>
</clipPath>
</defs>
</svg>
