<svg width="24" height="24" viewBox="0 0 24 24" fill="none" xmlns="http://www.w3.org/2000/svg">
<path fill-rule="evenodd" clip-rule="evenodd" d="M0 3C0 1.34315 1.34314 0 3 0H16.9221C18.5789 0 19.9221 1.34314 19.9221 3V5.77922H17.9221V3C17.9221 2.44772 17.4744 2 16.9221 2H3C2.44772 2 2 2.44772 2 3V16.9221C2 17.4744 2.44771 17.9221 3 17.9221H6.22727V19.9221H3C1.34314 19.9221 0 18.5789 0 16.9221V3Z" fill="white"/>
<path fill-rule="evenodd" clip-rule="evenodd" d="M22 7.48053H8.07788V21.4026H22V7.48053ZM8.07788 5.48053C6.97331 5.48053 6.07788 6.37596 6.07788 7.48053V21.4026C6.07788 22.5072 6.97331 23.4026 8.07788 23.4026H22C23.1045 23.4026 24 22.5072 24 21.4026V7.48053C24 6.37596 23.1045 5.48053 22 5.48053H8.07788Z" fill="white"/>
</svg>
