<svg width="119" height="23" viewBox="0 0 119 23" fill="none" xmlns="http://www.w3.org/2000/svg">
<g clip-path="url(#clip0_38_355)">
<path d="M7.59069 22.5882H3.11113V11.4829H0.0595703V7.86722H3.11101V5.29442C3.11101 2.24565 4.46067 0.059082 8.9281 0.059082C9.87297 0.059082 11.3564 0.248478 11.3564 0.248478V3.60582H9.79831C8.21077 3.60582 7.59093 4.08605 7.59093 5.41371V7.86722H11.2969L10.9669 11.4829H7.59081L7.59069 22.5882ZM17.8692 7.57828C17.8039 7.57828 17.7367 7.58065 17.6703 7.5823C13.5166 7.5823 11.6161 10.6895 11.6161 15.1002C11.6161 20.6565 14.0812 22.8803 17.7027 22.8803C19.7747 22.8803 21.136 22.013 21.9634 20.3945V22.5897H26.2241V7.86876H21.9634V10.1326C21.2878 8.67612 19.8885 7.59554 17.8692 7.57828ZM18.9525 11.0568C20.6971 11.0568 21.7442 12.267 21.7442 14.3254L21.7482 16.4277C21.7482 17.8151 20.8834 19.4382 18.9525 19.4382C15.9841 19.4382 16.0633 16.2506 16.0633 15.189C16.0633 11.6178 17.6449 11.0568 18.9525 11.0568ZM27.9448 15.23C27.9448 13.4412 27.8587 7.58786 35.527 7.58786C38.6052 7.58786 39.8906 8.5612 39.8906 8.5612L38.8575 11.7477C38.8575 11.7477 37.5738 11.0447 35.9012 11.0447C33.7588 11.0447 32.3918 12.2798 32.3918 14.4529L32.3942 16.0111C32.3942 18.0992 33.7132 19.4931 35.9056 19.4931C37.4294 19.4931 38.8338 18.7835 38.8338 18.7835L39.8643 21.9034C39.8643 21.9034 38.689 22.8829 35.5486 22.8829C28.2471 22.8829 27.9449 17.6314 27.9449 15.23H27.9448ZM64.8726 7.5823C69.0264 7.5823 70.9568 10.6895 70.9568 15.1002C70.9568 20.6565 68.4916 22.8803 64.8701 22.8803C62.7981 22.8803 61.2665 22.0132 60.4391 20.3945V22.5897L56.232 22.5881V0.50668L60.6988 0.119258V9.9332C61.3435 8.21622 63.4622 7.5823 64.8727 7.5823H64.8726ZM63.6203 11.0568C61.8757 11.0568 60.6988 12.267 60.6988 14.3254L60.6946 16.4277C60.692 17.8151 61.5097 19.4382 63.6203 19.4382C66.5888 19.4382 66.5095 16.2506 66.5095 15.189C66.5095 11.6178 64.928 11.0568 63.6203 11.0568ZM47.6409 7.59448C42.9296 7.59448 40.4424 10.149 40.4424 14.6885V15.532C40.4424 21.4239 43.9353 22.9409 48.0994 22.9409C52.147 22.9409 53.9791 21.815 53.9791 21.815L53.1432 18.8168C53.1432 18.8168 50.9881 19.7287 48.635 19.7287C46.1955 19.7287 45.1464 19.1104 44.8775 16.779H54.3362V14.3737C54.3362 9.44942 51.5447 7.59436 47.6408 7.59436L47.6409 7.59448ZM47.7544 10.5967C49.3852 10.5967 50.442 11.5912 50.384 13.8976H44.8857C44.9811 11.4701 46.1207 10.5968 47.7544 10.5968V10.5967ZM79.8635 7.57426C75.0254 7.57426 72.4784 10.2856 72.4784 15.1445C72.4784 21.8112 76.8689 22.8843 79.8716 22.8843C84.2673 22.8843 87.1918 20.5309 87.1918 15.2051C87.1918 9.66187 83.9036 7.57426 79.8635 7.57426ZM79.8027 11.0689C81.93 11.0689 82.773 12.6522 82.773 14.4546V16.0042C82.773 18.1875 81.5935 19.4504 79.7946 19.4504C78.1122 19.4504 76.9298 18.2691 76.9298 16.0042V14.4546C76.9298 12.039 78.3367 11.0689 79.8027 11.0689ZM96.0905 7.57426C91.2524 7.57426 88.7054 10.2856 88.7054 15.1445C88.7054 21.8112 93.0959 22.8843 96.0986 22.8843C100.494 22.8843 103.419 20.5309 103.419 15.2051C103.419 9.66187 100.13 7.57426 96.0905 7.57426ZM96.0297 11.0689C98.1571 11.0689 98.9999 12.6522 98.9999 14.4546V16.0042C98.9999 18.1875 97.8204 19.4504 96.0216 19.4504C94.3392 19.4504 93.1568 18.2691 93.1568 16.0042V14.4546C93.1568 12.039 94.5638 11.0689 96.0297 11.0689ZM105.107 22.5882V0.50668L109.587 0.119258V14.9197L114.031 7.86722H118.762L114.126 15.1715L118.941 22.5882H114.196L109.587 15.3867V22.5882H105.107Z" fill="white" fill-opacity="0.6"/>
</g>
<defs>
<clipPath id="clip0_38_355">
<rect width="119" height="23" fill="white"/>
</clipPath>
</defs>
</svg>
