<svg width="119" height="32" viewBox="0 0 119 32" fill="none" xmlns="http://www.w3.org/2000/svg">
<path d="M67.4137 10.7851C67.4137 7.34802 67.4732 4.14802 67.6517 1.18506L58.5482 2.90358V3.73321L59.4407 3.85173C60.0952 3.91098 60.5117 4.14802 60.7497 4.50358C60.9877 4.91839 61.1662 5.51098 61.2852 6.39987C61.4042 8.11839 61.5232 12.0295 61.4637 18.1925C61.4637 24.2962 61.4042 28.148 61.2852 29.6295C64.5577 30.3406 67.1162 30.6369 69.0202 30.6369C72.5902 30.6369 75.3867 29.6295 77.4097 27.5554C79.4327 25.5406 80.5037 22.6962 80.5037 19.1999C80.5037 16.4147 79.7302 14.1036 78.1832 12.2665C76.6362 10.4295 74.6727 9.54061 72.3522 9.54061C70.8052 9.54061 69.1987 9.95543 67.4137 10.7851ZM67.5922 29.0369C67.4732 27.1406 67.3542 21.4517 67.3542 12.148C67.8897 11.9702 68.6037 11.8517 69.4962 11.8517C70.9242 11.8517 72.0547 12.5628 72.8877 14.0443C73.7207 15.5258 74.1372 17.3036 74.1372 19.5554C74.1372 22.3406 73.6612 24.5925 72.7092 26.4888C71.7572 28.3258 70.5672 29.2739 69.0797 29.2739C68.6037 29.1554 68.1277 29.0962 67.5922 29.0369ZM24.3952 1.77765H0.595215V2.96284L1.84471 3.08135C2.79671 3.25913 3.45121 3.61469 3.86771 4.14802C4.28421 4.74061 4.52221 5.68876 4.58171 6.99247C5.05771 13.3925 5.05771 19.3777 4.58171 24.8888C4.46271 26.1925 4.22471 27.1406 3.86771 27.7332C3.45121 28.3258 2.79671 28.6814 1.84471 28.7999L0.595215 28.9777V30.1628H15.9462V28.9777L14.3397 28.8591C13.3877 28.7406 12.7332 28.3258 12.3167 27.7925C11.9002 27.1999 11.6622 26.2517 11.6027 24.948C11.4242 22.5777 11.3052 19.8517 11.3052 16.8295L14.5182 16.8888C16.2437 16.948 17.4337 18.2517 18.0287 20.8591H19.2187V11.1999H18.0287C17.4337 13.748 16.3032 15.0517 14.5182 15.111L11.3052 15.1702C11.3052 9.83691 11.4242 6.04432 11.6027 3.73321H16.3032C19.6352 3.73321 21.8962 5.86654 23.2052 10.1332L24.6332 9.71839L24.3952 1.77765ZM21.5987 20.0295C21.5987 23.111 22.4912 25.6591 24.2167 27.6739C25.9422 29.6888 28.5007 30.6369 31.7137 30.6369C34.9267 30.6369 37.5447 29.6295 39.4487 27.5554C41.3527 25.5406 42.2452 22.9925 42.2452 19.911C42.2452 16.8295 41.3527 14.2814 39.6272 12.2665C37.9017 10.2517 35.3432 9.30358 32.1302 9.30358C28.9172 9.30358 26.2992 10.311 24.3952 12.3851C22.4912 14.3999 21.5987 16.948 21.5987 20.0295ZM34.8672 13.2739C35.5812 14.9925 35.8787 17.2443 35.8787 19.9702C35.8787 26.2517 34.5697 29.3332 32.0112 29.3332C30.7022 29.3332 29.6907 28.4443 28.9767 26.6665C28.2627 24.8888 27.9652 22.6369 27.9652 19.9702C27.9652 13.748 29.2742 10.6665 31.8327 10.6665C33.1417 10.6073 34.1532 11.4962 34.8672 13.2739ZM85.1447 27.6739C87.1082 29.6295 89.6072 30.6369 92.5822 30.6369C94.4267 30.6369 96.0332 30.2814 97.4612 29.511C98.8892 28.7999 100.02 27.911 100.793 26.8443L100.198 26.1332C98.8892 27.1406 97.4017 27.6147 95.6762 27.6147C93.2962 27.6147 91.4517 26.8443 90.2022 25.2443C88.8932 23.6443 88.2982 21.6295 88.4172 19.0221H101.15C101.15 16.1777 100.436 13.8665 98.9487 12.0295C97.4612 10.2517 95.3787 9.36284 92.7012 9.36284C89.3692 9.36284 86.8107 10.4295 84.9662 12.5036C83.1217 14.5777 82.2292 17.1258 82.2292 20.148C82.2292 23.2295 83.1812 25.7184 85.1447 27.6739ZM89.5477 12.7999C90.2022 11.3777 91.0352 10.6665 92.1657 10.6665C93.9507 10.6665 94.8432 12.9184 94.8432 17.4814L88.5362 17.5999C88.5957 15.8221 88.8932 14.2221 89.5477 12.7999ZM117.156 10.4295C115.549 9.71839 113.526 9.30358 111.087 9.30358C108.588 9.30358 106.624 9.95543 105.137 11.1999C103.649 12.4443 102.876 13.9851 102.876 15.8221C102.876 17.4221 103.352 18.6665 104.244 19.5554C105.137 20.4443 106.565 21.2147 108.409 21.8665C110.075 22.4591 111.265 23.0517 111.86 23.5851C112.455 24.1777 112.812 24.8295 112.812 25.7184C112.812 26.548 112.515 27.3184 111.86 27.911C111.265 28.5628 110.432 28.8591 109.361 28.8591C106.743 28.8591 104.78 26.9628 103.411 23.1702L102.4 23.4665L102.638 29.3925C104.78 30.2221 107.16 30.6369 109.778 30.6369C112.515 30.6369 114.597 30.0443 116.144 28.7999C117.691 27.6147 118.465 25.8962 118.465 23.7628C118.465 22.3406 118.108 21.1554 117.334 20.2665C116.561 19.3777 115.311 18.6073 113.526 17.8962C111.563 17.1851 110.194 16.5332 109.48 15.9406C108.766 15.348 108.409 14.6369 108.409 13.748C108.409 12.8591 108.647 12.148 109.183 11.5554C109.718 10.9628 110.373 10.7258 111.206 10.7258C113.586 10.7258 115.311 12.4443 116.382 15.8221L117.394 15.5258L117.156 10.4295ZM59.9167 9.89617C59.0837 9.48136 58.1912 9.30358 57.1797 9.30358C56.1682 9.30358 55.1567 9.71839 54.0262 10.548C52.8957 11.3777 52.0627 12.5036 51.4082 14.0443L51.4677 9.30358L42.4237 11.0814V11.911L43.3162 11.9702C44.4467 12.0888 45.1012 12.9777 45.2202 14.5777C45.5772 18.2517 45.5772 22.1628 45.2202 26.311C45.1012 27.911 44.4467 28.7406 43.3162 28.9184L42.4237 29.0369V30.1628H55.0377V29.0369L53.4312 28.9184C52.3007 28.7999 51.6462 27.911 51.5272 26.311C51.1702 22.8739 51.1107 19.1999 51.4082 15.4073C51.7652 14.8147 52.5387 14.4591 53.7287 14.3406C54.9187 14.2221 56.2872 14.5777 57.7152 15.4073L59.9167 9.89617Z" fill="white" fill-opacity="0.6"/>
</svg>
