<svg width="119" height="39" viewBox="0 0 119 39" fill="none" xmlns="http://www.w3.org/2000/svg">
<g clip-path="url(#clip0_38_347)">
<path d="M115.294 23.8344L118.595 26.0325C117.523 27.6088 114.961 30.3131 110.53 30.3131C105.028 30.3131 100.931 26.0614 100.931 20.6529C100.931 14.8972 105.072 10.9927 110.067 10.9927C115.091 10.9927 117.552 14.984 118.349 17.1388L118.783 18.2378L105.839 23.5885C106.824 25.5263 108.358 26.5097 110.53 26.5097C112.702 26.5097 114.208 25.4396 115.294 23.8344ZM105.144 20.3492L113.788 16.7628C113.31 15.5625 111.891 14.7092 110.197 14.7092C108.04 14.7092 105.043 16.6181 105.144 20.3492Z" fill="white" fill-opacity="0.6"/>
<path d="M94.6899 1.14453H98.8598V29.431H94.6899V1.14453Z" fill="white" fill-opacity="0.6"/>
<path d="M88.1166 11.745H92.1417V28.9251C92.1417 36.0545 87.9284 38.9902 82.9477 38.9902C78.2566 38.9902 75.4332 35.8376 74.3763 33.2779L78.0683 31.745C78.7344 33.3213 80.3415 35.1868 82.9477 35.1868C86.1475 35.1868 88.1166 33.2056 88.1166 29.5035V28.1152H87.9718C87.0162 29.2721 85.1919 30.3134 82.8753 30.3134C78.0394 30.3134 73.6089 26.1051 73.6089 20.6821C73.6089 15.2302 78.0394 10.9785 82.8753 10.9785C85.1774 10.9785 87.0162 12.0053 87.9718 13.1333H88.1166V11.745ZM88.4062 20.6821C88.4062 17.2692 86.133 14.7819 83.2373 14.7819C80.3125 14.7819 77.8512 17.2692 77.8512 20.6821C77.8512 24.0516 80.3125 26.4956 83.2373 26.4956C86.133 26.51 88.4062 24.0516 88.4062 20.6821Z" fill="white" fill-opacity="0.6"/>
<path d="M50.7181 20.6097C50.7181 26.1773 46.3745 30.2699 41.0463 30.2699C35.7181 30.2699 31.3745 26.1629 31.3745 20.6097C31.3745 15.0132 35.7181 10.9351 41.0463 10.9351C46.3745 10.9351 50.7181 15.0132 50.7181 20.6097ZM46.4903 20.6097C46.4903 17.139 43.971 14.7529 41.0463 14.7529C38.1216 14.7529 35.6023 17.139 35.6023 20.6097C35.6023 24.0515 38.1216 26.4666 41.0463 26.4666C43.971 26.4666 46.4903 24.0515 46.4903 20.6097Z" fill="white" fill-opacity="0.6"/>
<path d="M71.8426 20.6529C71.8426 26.2205 67.499 30.3131 62.1708 30.3131C56.8426 30.3131 52.499 26.2205 52.499 20.6529C52.499 15.0563 56.8426 10.9927 62.1708 10.9927C67.499 10.9927 71.8426 15.0419 71.8426 20.6529ZM67.6004 20.6529C67.6004 17.1821 65.081 14.796 62.1563 14.796C59.2316 14.796 56.7123 17.1821 56.7123 20.6529C56.7123 24.0947 59.2316 26.5097 62.1563 26.5097C65.0955 26.5097 67.6004 24.0802 67.6004 20.6529Z" fill="white" fill-opacity="0.6"/>
<path d="M15.4769 26.076C9.41029 26.076 4.66126 21.1881 4.66126 15.1288C4.66126 9.06949 9.41029 4.18155 15.4769 4.18155C18.7491 4.18155 21.1381 5.46861 22.9045 7.1172L25.8147 4.21047C23.3533 1.85327 20.0666 0.0600586 15.4769 0.0600586C7.16608 0.0600586 0.172852 6.82798 0.172852 15.1288C0.172852 23.4296 7.16608 30.1975 15.4769 30.1975C19.9653 30.1975 23.3533 28.7225 26.0029 25.9748C28.7249 23.2561 29.5647 19.4383 29.5647 16.3436C29.5647 15.3746 29.4489 14.3768 29.3186 13.6393H15.4769V17.6595H25.3369C25.0473 20.1758 24.251 21.8967 23.0782 23.0681C21.6593 24.4998 19.4151 26.076 15.4769 26.076Z" fill="white" fill-opacity="0.6"/>
</g>
<defs>
<clipPath id="clip0_38_347">
<rect width="119" height="39" fill="white"/>
</clipPath>
</defs>
</svg>
