<svg width="119" height="25" viewBox="0 0 119 25" fill="none" xmlns="http://www.w3.org/2000/svg">
<g clip-path="url(#clip0_38_363)">
<path d="M42.0046 14.3994L41.2953 16.3761H41.2362C41.118 15.9304 40.9013 15.2521 40.5467 14.4381L36.7442 5.03892H33.0205V20.0195H35.4833V10.7754C35.4833 10.194 35.4833 9.53504 35.4636 8.72109C35.4439 8.31411 35.4044 8.00403 35.3847 7.77148H35.4438C35.5621 8.35287 35.7 8.77923 35.7985 9.05055L40.3693 19.9808H42.1031L46.6346 8.95365C46.7331 8.70171 46.8316 8.19783 46.9301 7.77148H46.9892C46.9301 8.87613 46.8907 9.8645 46.871 10.4653V19.9614H49.4914V5.00016H45.9056L42.0046 14.3994ZM51.9738 9.22497H54.5351V19.9614H51.9738V9.22497ZM53.2741 4.69008C52.8407 4.69008 52.4861 4.84512 52.1905 5.11644C51.895 5.38776 51.7374 5.73659 51.7374 6.16295C51.7374 6.56993 51.895 6.91876 52.1905 7.19008C52.4861 7.4614 52.8407 7.59706 53.2741 7.59706C53.7076 7.59706 54.0819 7.44202 54.3578 7.19008C54.6533 6.91876 54.8109 6.56993 54.8109 6.16295C54.8109 5.75597 54.6533 5.40714 54.3578 5.11644C54.1016 4.84512 53.7273 4.69008 53.2741 4.69008ZM63.6177 9.12807C63.1448 9.03117 62.6523 8.97303 62.1794 8.97303C61.017 8.97303 59.9531 9.22497 59.0665 9.72884C58.1799 10.2327 57.4707 10.9304 57.0175 11.8025C56.5447 12.694 56.3083 13.7211 56.3083 14.9033C56.3083 15.9304 56.5447 16.8412 56.9978 17.6746C57.451 18.4885 58.0814 19.1474 58.9286 19.5932C59.7364 20.0389 60.6821 20.2715 61.746 20.2715C62.9675 20.2715 64.0117 20.0195 64.8392 19.5544L64.8589 19.535V17.2095L64.7604 17.287C64.3861 17.5583 63.9526 17.7909 63.5192 17.9265C63.066 18.0816 62.6523 18.1591 62.2977 18.1591C61.2732 18.1591 60.4654 17.8684 59.894 17.2288C59.303 16.6087 59.0074 15.756 59.0074 14.6901C59.0074 13.5854 59.303 12.7133 59.9137 12.0738C60.5245 11.4343 61.3323 11.1048 62.3174 11.1048C63.1448 11.1048 63.992 11.3761 64.7604 11.9188L64.8589 11.9963V9.53504L64.8392 9.51566C64.5043 9.38 64.1299 9.22497 63.6177 9.12807ZM72.0698 9.05055C71.4394 9.05055 70.8483 9.24434 70.3361 9.65132C69.9026 10.0002 69.6071 10.504 69.351 11.1048H69.3313V9.22497H66.77V19.9614H69.3313V14.4769C69.3313 13.5467 69.5283 12.7715 69.9617 12.2095C70.3952 11.6281 70.9468 11.3374 71.6167 11.3374C71.8531 11.3374 72.0895 11.3955 72.3851 11.4343C72.6609 11.5118 72.8579 11.5893 72.9958 11.6862L73.0943 11.7637V9.24435L73.0352 9.22497C72.8579 9.10869 72.5033 9.05055 72.0698 9.05055ZM79.0443 8.99241C77.2515 8.99241 75.8132 9.51566 74.8084 10.5428C73.7839 11.5699 73.2914 12.9847 73.2914 14.7676C73.2914 16.4343 73.8036 17.7909 74.7887 18.7792C75.7738 19.7482 77.1135 20.2521 78.7882 20.2521C80.5417 20.2521 81.9405 19.7288 82.9453 18.6823C83.9698 17.6358 84.4624 16.2405 84.4624 14.5157C84.4624 12.8102 83.9895 11.4536 83.0241 10.4653C82.0982 9.4769 80.7387 8.99241 79.0443 8.99241ZM81.0934 17.2482C80.6205 17.849 79.8718 18.1397 78.9458 18.1397C78.0198 18.1397 77.2712 17.849 76.7392 17.2095C76.2073 16.6087 75.9511 15.7366 75.9511 14.6319C75.9511 13.4885 76.227 12.6164 76.7392 11.9963C77.2712 11.3761 78.0001 11.0661 78.9261 11.0661C79.8324 11.0661 80.5417 11.3567 81.0539 11.9575C81.5662 12.5583 81.842 13.4304 81.842 14.5738C81.8026 15.7366 81.5859 16.6474 81.0934 17.2482ZM90.176 13.6823C89.3682 13.3529 88.8559 13.1009 88.6195 12.8878C88.4225 12.694 88.324 12.4226 88.324 12.0738C88.324 11.7831 88.4422 11.4924 88.7377 11.2986C89.0333 11.1048 89.3682 11.0079 89.8607 11.0079C90.2942 11.0079 90.7473 11.0854 91.1808 11.2017C91.6142 11.318 92.0083 11.4924 92.3235 11.725L92.422 11.8025V9.43814L92.3629 9.41876C92.0674 9.30248 91.6733 9.18621 91.2005 9.08931C90.7276 9.01179 90.2942 8.97303 89.9395 8.97303C88.718 8.97303 87.7132 9.26372 86.9251 9.90326C86.1371 10.504 85.7627 11.318 85.7627 12.2676C85.7627 12.7715 85.8415 13.2172 86.0188 13.5854C86.1962 13.9536 86.4523 14.3025 86.8069 14.5932C87.1616 14.8645 87.6738 15.1746 88.3831 15.4653C88.9741 15.7172 89.4273 15.911 89.7031 16.0661C89.9789 16.2211 90.1563 16.3955 90.2942 16.5312C90.3927 16.6862 90.4518 16.88 90.4518 17.1319C90.4518 17.849 89.9001 18.1978 88.7771 18.1978C88.3437 18.1978 87.8905 18.1203 87.3586 17.9459C86.8266 17.7715 86.3341 17.5195 85.9203 17.2288L85.8218 17.1513V19.6126L85.8809 19.6319C86.2553 19.8064 86.7084 19.9226 87.2601 20.0583C87.8117 20.1552 88.3043 20.2327 88.7377 20.2327C90.0578 20.2327 91.1414 19.942 91.9097 19.3025C92.6978 18.6823 93.1116 17.8878 93.1116 16.8606C93.1116 16.1436 92.9145 15.504 92.4811 15.0195C91.9097 14.5544 91.2005 14.0699 90.176 13.6823ZM99.8693 8.99241C98.0765 8.99241 96.6382 9.51566 95.6334 10.5428C94.6286 11.5699 94.1164 12.9847 94.1164 14.7676C94.1164 16.4343 94.6286 17.7909 95.6137 18.7792C96.5988 19.7482 97.9386 20.2521 99.6132 20.2521C101.367 20.2521 102.766 19.7288 103.77 18.6823C104.795 17.6358 105.287 16.2405 105.287 14.5157C105.287 12.8102 104.815 11.4536 103.849 10.4653C102.923 9.4769 101.564 8.99241 99.8693 8.99241ZM101.899 17.2482C101.426 17.849 100.677 18.1397 99.7511 18.1397C98.8054 18.1397 98.0765 17.849 97.5445 17.2095C97.0126 16.6087 96.7564 15.7366 96.7564 14.6319C96.7564 13.4885 97.0323 12.6164 97.5445 11.9963C98.0765 11.3761 98.8054 11.0661 99.7314 11.0661C100.618 11.0661 101.347 11.3567 101.859 11.9575C102.371 12.5583 102.647 13.4304 102.647 14.5738C102.647 15.7366 102.391 16.6474 101.899 17.2482ZM118.98 11.2986V9.22497H116.399V6.04667L116.321 6.06605L113.877 6.7831L113.818 6.80248V9.22497H109.957V7.86838C109.957 7.24822 110.114 6.76372 110.39 6.45365C110.666 6.14357 111.08 5.98853 111.592 5.98853C111.947 5.98853 112.321 6.06605 112.735 6.24047L112.833 6.29861V4.10869L112.774 4.08931C112.42 3.97303 111.947 3.89551 111.336 3.89551C110.568 3.89551 109.898 4.06993 109.287 4.36062C108.676 4.69008 108.223 5.13582 107.888 5.73659C107.553 6.31799 107.376 6.9769 107.376 7.73272V9.22497H105.583V11.2792H107.376V19.9614H109.957V11.2986H113.818V16.8219C113.818 19.0893 114.902 20.2327 117.069 20.2327C117.424 20.2327 117.798 20.1746 118.153 20.1164C118.527 20.0389 118.803 19.942 118.961 19.8645L118.98 19.8451V17.7715L118.882 17.849C118.724 17.9459 118.586 18.0234 118.35 18.0816C118.153 18.1397 117.975 18.1591 117.838 18.1591C117.325 18.1591 116.971 18.0428 116.715 17.7521C116.478 17.4808 116.36 17.035 116.36 16.3761V11.2986H118.98Z" fill="white" fill-opacity="0.6"/>
<path d="M0 0H12.0773V11.8798H0V0Z" fill="white" fill-opacity="0.6"/>
<path d="M13.3384 0H25.4157V11.8798H13.3384V0Z" fill="white" fill-opacity="0.6"/>
<path d="M0 13.1201H12.0773V25H0V13.1201Z" fill="white" fill-opacity="0.6"/>
<path d="M13.3384 13.1201H25.4157V25H13.3384V13.1201Z" fill="white" fill-opacity="0.6"/>
</g>
<defs>
<clipPath id="clip0_38_363">
<rect width="119" height="25" fill="white"/>
</clipPath>
</defs>
</svg>
