<svg width="50" height="50" viewBox="0 0 50 50" fill="none" xmlns="http://www.w3.org/2000/svg">
<path d="M10.4167 11.4584C10.4167 9.52454 11.185 7.66988 12.5524 6.30243C13.9199 4.93497 15.7745 4.16675 17.7084 4.16675H25.0001V18.7501H17.7084C15.7745 18.7501 13.9199 17.9819 12.5524 16.6144C11.185 15.2469 10.4167 13.3923 10.4167 11.4584Z" stroke="white" stroke-width="2" stroke-linecap="round" stroke-linejoin="round"/>
<path d="M25 4.16675H32.2917C33.2492 4.16675 34.1974 4.35535 35.0821 4.72179C35.9667 5.08823 36.7706 5.62533 37.4477 6.30243C38.1248 6.97952 38.6618 7.78335 39.0283 8.66801C39.3947 9.55268 39.5833 10.5009 39.5833 11.4584C39.5833 12.416 39.3947 13.3641 39.0283 14.2488C38.6618 15.1335 38.1248 15.9373 37.4477 16.6144C36.7706 17.2915 35.9667 17.8286 35.0821 18.195C34.1974 18.5615 33.2492 18.7501 32.2917 18.7501H25V4.16675Z" stroke="white" stroke-width="2" stroke-linecap="round" stroke-linejoin="round"/>
<path d="M25 26.0417C25 25.0841 25.1886 24.1359 25.555 23.2513C25.9215 22.3666 26.4586 21.5628 27.1357 20.8857C27.8128 20.2086 28.6166 19.6715 29.5013 19.305C30.3859 18.9386 31.3341 18.75 32.2917 18.75C33.2492 18.75 34.1974 18.9386 35.0821 19.305C35.9667 19.6715 36.7706 20.2086 37.4477 20.8857C38.1248 21.5628 38.6618 22.3666 39.0283 23.2513C39.3947 24.1359 39.5833 25.0841 39.5833 26.0417C39.5833 26.9992 39.3947 27.9474 39.0283 28.8321C38.6618 29.7167 38.1248 30.5206 37.4477 31.1977C36.7706 31.8747 35.9667 32.4119 35.0821 32.7783C34.1974 33.1447 33.2492 33.3333 32.2917 33.3333C31.3341 33.3333 30.3859 33.1447 29.5013 32.7783C28.6166 32.4119 27.8128 31.8747 27.1357 31.1977C26.4586 30.5206 25.9215 29.7167 25.555 28.8321C25.1886 27.9474 25 26.9992 25 26.0417V26.0417Z" stroke="white" stroke-width="2" stroke-linecap="round" stroke-linejoin="round"/>
<path d="M10.4167 40.6249C10.4167 38.691 11.185 36.8364 12.5524 35.4689C13.9199 34.1015 15.7745 33.3333 17.7084 33.3333H25.0001V40.6249C25.0001 42.5588 24.2319 44.4135 22.8644 45.7809C21.4969 47.1484 19.6423 47.9166 17.7084 47.9166C15.7745 47.9166 13.9199 47.1484 12.5524 45.7809C11.185 44.4135 10.4167 42.5588 10.4167 40.6249Z" stroke="white" stroke-width="2" stroke-linecap="round" stroke-linejoin="round"/>
<path d="M10.4167 26.0417C10.4167 24.1078 11.185 22.2531 12.5524 20.8857C13.9199 19.5182 15.7745 18.75 17.7084 18.75H25.0001V33.3333H17.7084C15.7745 33.3333 13.9199 32.5651 12.5524 31.1977C11.185 29.8302 10.4167 27.9755 10.4167 26.0417Z" stroke="white" stroke-width="2" stroke-linecap="round" stroke-linejoin="round"/>
</svg>
